<?xml version="1.0" encoding="UTF-8" standalone="no"?>
<svg
   viewBox="0 0 10590.747 10590.747"
   height="10590.747"
   width="10590.747"
   xml:space="preserve"
   id="svg2"
   version="1.1"
   sodipodi:docname="untitled_495.svg"
   xmlns:inkscape="http://www.inkscape.org/namespaces/inkscape"
   xmlns:sodipodi="http://sodipodi.sourceforge.net/DTD/sodipodi-0.dtd"
   xmlns="http://www.w3.org/2000/svg"
   xmlns:svg="http://www.w3.org/2000/svg"
   xmlns:rdf="http://www.w3.org/1999/02/22-rdf-syntax-ns#"
   xmlns:cc="http://creativecommons.org/ns#"
   xmlns:dc="http://purl.org/dc/elements/1.1/"><sodipodi:namedview
     id="namedview1"
     pagecolor="#ffffff"
     bordercolor="#000000"
     borderopacity="0.25"
     inkscape:showpageshadow="2"
     inkscape:pageopacity="0.0"
     inkscape:pagecheckerboard="0"
     inkscape:deskcolor="#d1d1d1"><inkscape:page
       x="0"
       y="0"
       width="10590.747"
       height="10590.747"
       id="page2"
       margin="0"
       bleed="0" /></sodipodi:namedview><metadata
     id="metadata8"><rdf:RDF><cc:Work
         rdf:about=""><dc:format>image/svg+xml</dc:format><dc:type
           rdf:resource="http://purl.org/dc/dcmitype/StillImage" /></cc:Work></rdf:RDF></metadata><defs
     id="defs6"><clipPath
       id="clipPath20"
       clipPathUnits="userSpaceOnUse"><path
         style="clip-rule:evenodd"
         id="path18"
         d="M 4158.79,79430.6 H 75272.6 c 2286.5,0 4158,-1871.1 4158,-4158.4 V 4158.78 C 79430.6,1871.49 77559.1,0 75272.6,0 H 4158.79 C 1871.13,0 0,1871.49 0,4158.78 V 75272.2 c 0,2287.3 1871.13,4158.4 4158.79,4158.4" /></clipPath></defs><g
     transform="matrix(1.3333333,0,0,-1.3333333,0,10590.747)"
     id="g10"><g
       transform="scale(0.1)"
       id="g12"><g
         id="g14"><g
           clip-path="url(#clipPath20)"
           id="g16"><g
             transform="matrix(16.021189,0,0,14.768496,-153444.06,-169375.89)"
             id="g22"
             style="display:inline"><path
               id="path24"
               style="fill:#231f20;fill-opacity:1;fill-rule:evenodd;stroke:none"
               d="m 12804.2,15605.3 -1550.2,-2462.7 690.4,-1195.7 1127.6,1953.4 1385.7,2399.7 z m -955.4,-335.5 -2159.93,583.8 1127.73,-1953.3 81.4,-141 950.8,1510.5" /></g></g></g></g></g></svg>
